<?xml version="1.0" encoding="UTF-8" standalone="no"?>
<!-- Created with Inkscape (http://www.inkscape.org/) -->

<svg
   version="1.1"
   id="svg9"
   width="501.55103"
   height="501.55103"
   viewBox="0 0 501.55103 501.55103"
   sodipodi:docname="pictures.svg"
   inkscape:version="1.1.1 (3bf5ae0d25, 2021-09-20)"
   xmlns:inkscape="http://www.inkscape.org/namespaces/inkscape"
   xmlns:sodipodi="http://sodipodi.sourceforge.net/DTD/sodipodi-0.dtd"
   xmlns="http://www.w3.org/2000/svg"
   xmlns:svg="http://www.w3.org/2000/svg">
  <defs
     id="defs13" />
  <sodipodi:namedview
     id="namedview11"
     pagecolor="#ffffff"
     bordercolor="#666666"
     borderopacity="1.0"
     inkscape:pageshadow="2"
     inkscape:pageopacity="0.0"
     inkscape:pagecheckerboard="0"
     showgrid="false"
     inkscape:zoom="1.6129964"
     inkscape:rotation="-1"
     inkscape:cx="250.72141"
     inkscape:cy="253.94995"
     inkscape:window-width="1920"
     inkscape:window-height="1017"
     inkscape:window-x="-8"
     inkscape:window-y="-8"
     inkscape:window-maximized="1"
     inkscape:current-layer="g15" />
  <g
     inkscape:groupmode="layer"
     inkscape:label="Image"
     id="g15">
    <g
       id="g415"
       transform="matrix(0.12759777,0,0,0.12759777,218.8508,218.82546)">
      <path
         style="fill:#f2f2f2;stroke-width:0.979592"
         d="m 77.387757,466.95817 c -4.777841,-1.51439 -12.02442,-9.05363 -13.509993,-14.05562 -0.938688,-3.16061 -1.206931,-37.70136 -1.193353,-153.66375 0.01736,-148.27359 0.03501,-149.62624 2.010091,-154.09124 2.495372,-5.6412 4.215726,-7.54658 9.733247,-10.78007 l 4.389316,-2.57231 182.224125,-0.0707 c 100.22326,-0.0389 191.21452,-0.1429 202.20279,-0.2311 18.35206,-0.14733 20.36937,0.008 24.77731,1.90393 5.59392,2.40645 10.77805,8.01305 12.39286,13.40283 1.68335,5.61849 1.62508,300.47152 -0.0605,306.14747 -1.57444,5.30171 -8.79825,12.52551 -14.09996,14.09995 -5.53193,1.64282 -403.675488,1.5558 -408.865903,-0.0894 z M 463.05505,434.75852 c 2.39314,-1.58376 4.79915,-4.336 6.05077,-6.92152 l 2.07786,-4.29229 V 299.8966 c 0,-121.52384 -0.0335,-123.71379 -1.95014,-127.47071 -1.07257,-2.10242 -3.57291,-5.06038 -5.55631,-6.57322 l -3.60618,-2.75063 -176.89266,-0.23324 -176.89267,-0.23324 -3.89841,2.21239 c -2.18183,1.23822 -4.870605,3.92896 -6.106329,6.11079 l -2.207933,3.89841 -0.01612,124.74991 c -0.01755,135.8927 -0.332747,128.01355 5.333956,133.33714 5.420046,5.09186 -3.235248,4.87398 184.762426,4.65102 l 174.92882,-0.20746 z M 0.0773362,161.06123 c 0.04700466,-1.14117 0.2791252,-1.37329 0.59183675,-0.59184 0.2829753,0.70714 0.248174,1.55204 -0.0773362,1.87756 -0.32551021,0.3255 -0.55703546,-0.25307 -0.51450055,-1.28572 z M 395.57144,33.616542 c 0.70713,-0.282976 1.55204,-0.248174 1.87755,0.07734 0.32551,0.32551 -0.25307,0.557036 -1.28571,0.514501 -1.14118,-0.047 -1.37329,-0.279126 -0.59184,-0.591837 z m 8.81632,0 c 0.70714,-0.282976 1.55205,-0.248174 1.87756,0.07734 0.32551,0.32551 -0.25307,0.557036 -1.28572,0.514501 -1.14117,-0.047 -1.37329,-0.279126 -0.59184,-0.591837 z"
         id="path429" />
      <path
         style="fill:#e3e6e6;stroke-width:0.979592"
         d="m 464.32654,433.58934 c 0,-0.20341 0.77143,-0.97484 1.71429,-1.71429 1.55369,-1.21848 1.58833,-1.18384 0.36985,0.36986 -1.27971,1.63175 -2.08414,2.15067 -2.08414,1.34443 z M 31.354815,276.00778 C 8.1278706,189.52401 0.51121981,159.80214 0.52850333,155.71665 0.55668964,149.05396 3.9686522,142.63466 9.4890854,138.85813 12.431206,136.84542 52.543081,125.79576 198.36735,86.827659 300.19592,59.616371 387.23118,36.39084 391.77903,35.215367 c 7.22613,-1.867718 8.91551,-1.992504 13.39705,-0.98958 6.67529,1.493865 12.34505,5.683058 14.87729,10.99231 1.5949,3.343997 23.70174,83.091933 23.70174,85.501373 0,0.32828 -6.71516,0.47518 -14.92257,0.32646 l -14.92259,-0.27042 -5.60648,-20.90971 C 405.2199,98.365461 402.00494,86.575591 401.15914,83.666086 398.62268,74.940992 391.5717,68.62377 384.27637,68.540216 382.77743,68.523044 328.95183,82.518967 264.66393,99.642261 l -116.88708,31.133249 132.56055,0.56205 132.56057,0.56204 -165.76175,-0.15363 c -127.91515,-0.11855 -166.552811,0.11833 -169.226482,1.0375 -1.905605,0.65511 -5.054135,2.40341 -6.996732,3.8851 -3.609716,2.75326 -8.192235,11.02214 -8.209558,14.81364 -0.0083,1.82344 -1.166742,2.38038 -8.952216,4.3041 -12.562146,3.104 -18.485925,8.63088 -18.485925,17.24733 0,2.01384 6.175082,26.62104 13.722406,54.68267 l 13.722404,51.02115 -0.253016,56.06762 -0.253018,56.06762 z M 98.448981,167.51021 c 0.975174,-1.07755 1.993449,-1.95919 2.262839,-1.95919 0.26939,0 -0.30807,0.88164 -1.283247,1.95919 -0.975174,1.07755 -1.993445,1.95918 -2.262832,1.95918 -0.269388,0 0.30807,-0.88163 1.28324,-1.95918 z m 96.567139,-3.5102 c 0.047,-1.14118 0.27912,-1.37329 0.59183,-0.59184 0.28297,0.70713 0.24818,1.55203 -0.0773,1.87755 -0.32552,0.32551 -0.55704,-0.25307 -0.5145,-1.28571 z"
         id="path427" />
      <path
         style="fill:#a2def3;stroke-width:0.979592"
         d="m 195.59588,437.14294 c 47.50427,-0.14057 125.52876,-0.14059 173.38776,-3e-5 47.85901,0.14057 8.99188,0.25559 -86.37139,0.25561 -95.36327,10e-6 -134.52063,-0.11499 -87.01637,-0.25558 z m -97.23997,-5.38783 -1.866112,-2.20408 2.204081,1.86611 c 2.071291,1.75369 2.650031,2.54205 1.866111,2.54205 -0.18589,0 -1.177722,-0.99183 -2.20408,-2.20408 z m 372.08922,-55.83674 c -0.13257,-26.2653 -0.46869,-47.7551 -0.74692,-47.7551 -0.27823,0 -5.89864,-1.06683 -12.4898,-2.37075 -36.30494,-7.1821 -72.64072,-8.00042 -109.13162,-2.45775 -49.37781,7.50008 -92.48658,26.78302 -119.20472,53.32133 l -8.04414,7.98998 -6.58973,-4.6342 C 186.58276,360.56335 140.08261,350.99436 98.693879,356.2347 l -4.653061,0.58914 V 310.7802 264.73656 L 108,264.22804 c 8.13393,-0.2963 16.41193,-1.16813 19.83674,-2.08915 25.66423,-6.90185 46.91615,-23.91117 58.25918,-46.62868 7.16101,-14.34187 9.82245,-25.80392 9.82245,-42.30236 v -10.5956 l 129.55102,0.006 c 87.19497,0.004 130.7581,0.34067 133.243,1.03074 4.95627,1.37638 9.91492,6.53328 11.35785,11.81192 0.89009,3.25622 1.1065,33.78564 0.89494,126.25391 -0.15346,67.07756 -0.38748,100.46939 -0.52005,74.20409 z"
         id="path425" />
      <path
         style="fill:#edc65d;stroke-width:0.979592"
         d="m 95.265308,263.84104 c -0.954112,-0.38499 -1.21974,-10.04745 -1.202976,-43.7594 0.01983,-39.88168 0.162232,-43.57176 1.820835,-47.18368 2.140211,-4.66072 4.324793,-6.74931 9.182453,-8.77896 3.05974,-1.27845 10.13504,-1.50675 46.69527,-1.50675 H 194.85 l 0.67284,3.58652 c 1.07743,5.74325 -0.31958,22.68089 -2.57007,31.15972 -10.51595,39.61947 -46.53134,67.32254 -87.15685,67.04111 -5.11837,-0.0355 -9.857143,-0.28681 -10.530612,-0.55856 z"
         id="path423" />
      <path
         style="fill:#4ac1ac;stroke-width:0.979592"
         d="m 200.30642,431.75511 c 1.82106,-14.33055 7.16681,-28.06618 15.52122,-39.88098 3.60939,-5.10441 4.25818,-6.62169 3.35101,-7.83673 -0.91147,-1.22082 -0.87893,-1.28895 0.17149,-0.35899 1.02934,0.91129 2.97257,-0.51704 9.43126,-6.93226 26.8137,-26.63322 69.84809,-45.90075 119.29539,-53.41138 36.4909,-5.54267 72.82668,-4.72435 109.13162,2.45775 6.59116,1.30392 12.21157,2.37075 12.4898,2.37075 0.27823,0 0.49863,21.71021 0.48977,48.2449 -0.0161,48.2363 -0.0165,48.24559 -2.22405,52.1433 -1.23798,2.18581 -3.92053,4.86836 -6.10633,6.10634 l -3.89841,2.20793 -129.15315,0.0161 -129.15315,0.0161 z M 94.118154,422.61226 c 0.047,-1.14118 0.279126,-1.37329 0.591837,-0.59184 0.282976,0.70713 0.248174,1.55204 -0.07734,1.87755 -0.32551,0.32551 -0.557036,-0.25307 -0.514501,-1.28571 z M 215.38525,381.30613 c -1.21848,-1.55369 -1.18384,-1.58834 0.36986,-0.36985 0.94285,0.73944 1.71428,1.51087 1.71428,1.71428 0,0.80624 -0.80443,0.28732 -2.08414,-1.34443 z m -58.83423,-23.44468 c 0.70714,-0.28297 1.55204,-0.24818 1.87756,0.0773 0.32551,0.32551 -0.25307,0.55704 -1.28572,0.5145 -1.14117,-0.047 -1.37329,-0.27912 -0.59184,-0.59183 z m -5.87755,-0.97959 c 0.70714,-0.28298 1.55204,-0.24818 1.87756,0.0773 0.32551,0.32551 -0.25307,0.55703 -1.28572,0.5145 -1.14117,-0.047 -1.37329,-0.27913 -0.59184,-0.59183 z m -49.51197,-0.98927 c 0.95311,-0.24837 2.27556,-0.23204 2.93878,0.0363 0.66321,0.26834 -0.1166,0.47155 -1.73293,0.45158 -1.61633,-0.02 -2.15896,-0.23951 -1.20585,-0.48787 z m 40.63442,0.0301 c 0.67347,-0.27175 1.77551,-0.27175 2.44898,0 0.67347,0.27175 0.12245,0.4941 -1.22449,0.4941 -1.34694,0 -1.89796,-0.22235 -1.22449,-0.4941 z m -23.96423,-1.0558 c 3.11762,-0.19499 7.9666,-0.19318 10.77551,0.004 2.8089,0.1972 0.25811,0.35673 -5.66842,0.35452 -5.92653,-0.002 -8.22472,-0.16355 -5.10709,-0.35854 z M 382.30436,68.872173 c 0.95312,-0.248368 2.27557,-0.232035 2.93878,0.03629 0.66321,0.268333 -0.1166,0.471544 -1.73293,0.45158 -1.61633,-0.01996 -2.15896,-0.239508 -1.20585,-0.487878 z"
         id="path421" />
      <path
         style="fill:#3cb29d;stroke-width:0.979592"
         d="m 104.14642,434.99417 c -2.57709,-1.17003 -5.122506,-3.40739 -6.857138,-6.02724 l -2.758668,-4.16648 -0.303248,-33.5914 -0.303249,-33.59141 2.752228,-0.768 c 4.706275,-1.31327 48.032225,-0.90264 56.139985,0.53209 26.27401,4.64938 51.234,14.51195 64.40321,25.44798 l 3.17871,2.63969 -4.48513,6.36734 c -8.58548,12.18847 -13.12553,23.3388 -15.1555,37.22183 l -1.14627,7.8394 -45.68322,-0.0215 c -42.75999,-0.0202 -45.94549,-0.14058 -49.78171,-1.88229 z"
         id="path419" />
      <path
         style="fill:#1f8cb1;stroke-width:0.979592"
         d="m 49.002888,225.55102 c -8.251981,-30.5663 -13.110302,-50.29004 -13.031908,-52.90674 0.150329,-5.01785 2.953555,-9.87229 7.115598,-12.32233 1.682248,-0.99028 6.782084,-2.79479 11.332968,-4.01004 l 8.274333,-2.20954 v 60.09168 c 0,33.05042 -0.120171,60.09167 -0.267047,60.09167 -0.146875,0 -6.18765,-21.93061 -13.423944,-48.7347 z M 264.4898,100.35991 c 66.48732,-17.778385 116.90755,-30.784308 119.37684,-30.793308 5.25534,-0.01915 11.27747,3.172705 13.85521,7.343572 1.02845,1.664088 4.76857,13.803328 8.31136,26.976086 3.54279,13.17276 6.6766,24.72191 6.96401,25.66476 0.49596,1.62698 -6.20343,1.71104 -131.54344,1.65046 l -132.06602,-0.0638 z"
         id="path417" />
    </g>
  </g>
</svg>
